<?xml version="1.0" encoding="UTF-8" standalone="no"?>
<!DOCTYPE svg PUBLIC "-//W3C//DTD SVG 1.1//EN"
 "http://www.w3.org/Graphics/SVG/1.1/DTD/svg11.dtd">
<!-- Generated by graphviz version 2.47.3 (20210619.1520)
 -->
<!-- Title: dependencies Pages: 1 -->
<svg width="2182pt" height="247pt"
 viewBox="0.00 0.00 2182.00 246.80" xmlns="http://www.w3.org/2000/svg" xmlns:xlink="http://www.w3.org/1999/xlink">
<g id="graph0" class="graph" transform="scale(1 1) rotate(0) translate(4 242.8)">
<title>dependencies</title>
<polygon fill="white" stroke="transparent" points="-4,4 -4,-242.8 2178,-242.8 2178,4 -4,4"/>
<text text-anchor="middle" x="1087" y="-8.2" font-family="sans-serif" font-size="14.00">dependencies</text>
<g id="clust1" class="cluster">
<title>cluster_AppModule</title>
<polygon fill="none" stroke="black" stroke-dasharray="1,5" points="8,-32.8 8,-230.8 2166,-230.8 2166,-32.8 8,-32.8"/>
</g>
<g id="clust18" class="cluster">
<title>cluster_AppModule_bootstrap</title>
<polygon fill="none" stroke="black" points="894,-170.8 894,-222.8 1018,-222.8 1018,-170.8 894,-170.8"/>
</g>
<g id="clust19" class="cluster">
<title>cluster_AppModule_providers</title>
<polygon fill="none" stroke="black" points="2026,-40.8 2026,-92.8 2158,-92.8 2158,-40.8 2026,-40.8"/>
</g>
<g id="clust16" class="cluster">
<title>cluster_AppModule_imports</title>
<polygon fill="none" stroke="black" points="1874,-40.8 1874,-92.8 2018,-92.8 2018,-40.8 1874,-40.8"/>
</g>
<g id="clust2" class="cluster">
<title>cluster_AppModule_declarations</title>
<polygon fill="none" stroke="black" points="16,-40.8 16,-92.8 1866,-92.8 1866,-40.8 16,-40.8"/>
</g>
<!-- AppComponent -->
<g id="node1" class="node">
<title>AppComponent</title>
<polygon fill="#ffffb3" stroke="black" points="1857.94,-84.8 1752.06,-84.8 1752.06,-48.8 1857.94,-48.8 1857.94,-84.8"/>
<text text-anchor="middle" x="1805" y="-62.6" font-family="Times,serif" font-size="14.00">AppComponent</text>
</g>
<!-- AppModule -->
<g id="node14" class="node">
<title>AppModule</title>
<polygon fill="#8dd3c7" stroke="black" points="997.66,-149.8 994.66,-153.8 973.66,-153.8 970.66,-149.8 914.34,-149.8 914.34,-113.8 997.66,-113.8 997.66,-149.8"/>
<text text-anchor="middle" x="956" y="-127.6" font-family="Times,serif" font-size="14.00">AppModule</text>
</g>
<!-- AppComponent&#45;&gt;AppModule -->
<g id="edge1" class="edge">
<title>AppComponent&#45;&gt;AppModule</title>
<path fill="none" stroke="black" d="M1805,-85.08C1805,-106.12 1805,-137.8 1805,-137.8 1805,-137.8 1007.81,-137.8 1007.81,-137.8"/>
<polygon fill="black" stroke="black" points="1007.81,-134.3 997.81,-137.8 1007.81,-141.3 1007.81,-134.3"/>
</g>
<!-- CartComponent -->
<g id="node2" class="node">
<title>CartComponent</title>
<polygon fill="#ffffb3" stroke="black" points="1734.94,-84.8 1629.06,-84.8 1629.06,-48.8 1734.94,-48.8 1734.94,-84.8"/>
<text text-anchor="middle" x="1682" y="-62.6" font-family="Times,serif" font-size="14.00">CartComponent</text>
</g>
<!-- CartComponent&#45;&gt;AppModule -->
<g id="edge2" class="edge">
<title>CartComponent&#45;&gt;AppModule</title>
<path fill="none" stroke="black" d="M1682,-85.11C1682,-104.95 1682,-133.8 1682,-133.8 1682,-133.8 1007.91,-133.8 1007.91,-133.8"/>
<polygon fill="black" stroke="black" points="1007.91,-130.3 997.91,-133.8 1007.91,-137.3 1007.91,-130.3"/>
</g>
<!-- CheckoutComponent -->
<g id="node3" class="node">
<title>CheckoutComponent</title>
<polygon fill="#ffffb3" stroke="black" points="1611.49,-84.8 1476.51,-84.8 1476.51,-48.8 1611.49,-48.8 1611.49,-84.8"/>
<text text-anchor="middle" x="1544" y="-62.6" font-family="Times,serif" font-size="14.00">CheckoutComponent</text>
</g>
<!-- CheckoutComponent&#45;&gt;AppModule -->
<g id="edge3" class="edge">
<title>CheckoutComponent&#45;&gt;AppModule</title>
<path fill="none" stroke="black" d="M1544,-85.02C1544,-103.63 1544,-129.8 1544,-129.8 1544,-129.8 1007.82,-129.8 1007.82,-129.8"/>
<polygon fill="black" stroke="black" points="1007.82,-126.3 997.82,-129.8 1007.82,-133.3 1007.82,-126.3"/>
</g>
<!-- EditUserComponent -->
<g id="node4" class="node">
<title>EditUserComponent</title>
<polygon fill="#ffffb3" stroke="black" points="1458.59,-84.8 1327.41,-84.8 1327.41,-48.8 1458.59,-48.8 1458.59,-84.8"/>
<text text-anchor="middle" x="1393" y="-62.6" font-family="Times,serif" font-size="14.00">EditUserComponent</text>
</g>
<!-- EditUserComponent&#45;&gt;AppModule -->
<g id="edge4" class="edge">
<title>EditUserComponent&#45;&gt;AppModule</title>
<path fill="none" stroke="black" d="M1393,-84.82C1393,-102.17 1393,-125.8 1393,-125.8 1393,-125.8 1007.9,-125.8 1007.9,-125.8"/>
<polygon fill="black" stroke="black" points="1007.9,-122.3 997.9,-125.8 1007.9,-129.3 1007.9,-122.3"/>
</g>
<!-- Footer2Component -->
<g id="node5" class="node">
<title>Footer2Component</title>
<polygon fill="#ffffb3" stroke="black" points="1309.38,-84.8 1184.62,-84.8 1184.62,-48.8 1309.38,-48.8 1309.38,-84.8"/>
<text text-anchor="middle" x="1247" y="-62.6" font-family="Times,serif" font-size="14.00">Footer2Component</text>
</g>
<!-- Footer2Component&#45;&gt;AppModule -->
<g id="edge5" class="edge">
<title>Footer2Component&#45;&gt;AppModule</title>
<path fill="none" stroke="black" d="M1247,-84.81C1247,-100.85 1247,-121.8 1247,-121.8 1247,-121.8 1007.69,-121.8 1007.69,-121.8"/>
<polygon fill="black" stroke="black" points="1007.69,-118.3 997.69,-121.8 1007.69,-125.3 1007.69,-118.3"/>
</g>
<!-- Header3Component -->
<g id="node6" class="node">
<title>Header3Component</title>
<polygon fill="#ffffb3" stroke="black" points="1166.24,-84.8 1037.76,-84.8 1037.76,-48.8 1166.24,-48.8 1166.24,-84.8"/>
<text text-anchor="middle" x="1102" y="-62.6" font-family="Times,serif" font-size="14.00">Header3Component</text>
</g>
<!-- Header3Component&#45;&gt;AppModule -->
<g id="edge6" class="edge">
<title>Header3Component&#45;&gt;AppModule</title>
<path fill="none" stroke="black" d="M1102,-84.92C1102,-99.58 1102,-117.8 1102,-117.8 1102,-117.8 1007.84,-117.8 1007.84,-117.8"/>
<polygon fill="black" stroke="black" points="1007.84,-114.3 997.84,-117.8 1007.84,-121.3 1007.84,-114.3"/>
</g>
<!-- LoadingComponent -->
<g id="node7" class="node">
<title>LoadingComponent</title>
<polygon fill="#ffffb3" stroke="black" points="1019.99,-84.8 892.01,-84.8 892.01,-48.8 1019.99,-48.8 1019.99,-84.8"/>
<text text-anchor="middle" x="956" y="-62.6" font-family="Times,serif" font-size="14.00">LoadingComponent</text>
</g>
<!-- LoadingComponent&#45;&gt;AppModule -->
<g id="edge7" class="edge">
<title>LoadingComponent&#45;&gt;AppModule</title>
<path fill="none" stroke="black" d="M956,-84.91C956,-84.91 956,-103.79 956,-103.79"/>
<polygon fill="black" stroke="black" points="952.5,-103.79 956,-113.79 959.5,-103.79 952.5,-103.79"/>
</g>
<!-- LoginComponent -->
<g id="node8" class="node">
<title>LoginComponent</title>
<polygon fill="#ffffb3" stroke="black" points="874.28,-84.8 759.72,-84.8 759.72,-48.8 874.28,-48.8 874.28,-84.8"/>
<text text-anchor="middle" x="817" y="-62.6" font-family="Times,serif" font-size="14.00">LoginComponent</text>
</g>
<!-- LoginComponent&#45;&gt;AppModule -->
<g id="edge8" class="edge">
<title>LoginComponent&#45;&gt;AppModule</title>
<path fill="none" stroke="black" d="M797.87,-84.81C797.87,-100.85 797.87,-121.8 797.87,-121.8 797.87,-121.8 904.04,-121.8 904.04,-121.8"/>
<polygon fill="black" stroke="black" points="904.04,-125.3 914.04,-121.8 904.04,-118.3 904.04,-125.3"/>
</g>
<!-- LoginComponent&#45;&gt;AppModule -->
<g id="edge9" class="edge">
<title>LoginComponent&#45;&gt;AppModule</title>
<path fill="none" stroke="black" d="M836.13,-84.92C836.13,-99.58 836.13,-117.8 836.13,-117.8 836.13,-117.8 904.08,-117.8 904.08,-117.8"/>
<polygon fill="black" stroke="black" points="904.08,-121.3 914.08,-117.8 904.07,-114.3 904.08,-121.3"/>
</g>
<!-- MenuComponent -->
<g id="node9" class="node">
<title>MenuComponent</title>
<polygon fill="#ffffb3" stroke="black" points="741.99,-84.8 628.01,-84.8 628.01,-48.8 741.99,-48.8 741.99,-84.8"/>
<text text-anchor="middle" x="685" y="-62.6" font-family="Times,serif" font-size="14.00">MenuComponent</text>
</g>
<!-- MenuComponent&#45;&gt;AppModule -->
<g id="edge10" class="edge">
<title>MenuComponent&#45;&gt;AppModule</title>
<path fill="none" stroke="black" d="M685,-84.82C685,-102.17 685,-125.8 685,-125.8 685,-125.8 904.25,-125.8 904.25,-125.8"/>
<polygon fill="black" stroke="black" points="904.25,-129.3 914.25,-125.8 904.25,-122.3 904.25,-129.3"/>
</g>
<!-- MenuItemComponent -->
<g id="node10" class="node">
<title>MenuItemComponent</title>
<polygon fill="#ffffb3" stroke="black" points="609.65,-84.8 470.35,-84.8 470.35,-48.8 609.65,-48.8 609.65,-84.8"/>
<text text-anchor="middle" x="540" y="-62.6" font-family="Times,serif" font-size="14.00">MenuItemComponent</text>
</g>
<!-- MenuItemComponent&#45;&gt;AppModule -->
<g id="edge11" class="edge">
<title>MenuItemComponent&#45;&gt;AppModule</title>
<path fill="none" stroke="black" d="M540,-85.02C540,-103.63 540,-129.8 540,-129.8 540,-129.8 904.21,-129.8 904.21,-129.8"/>
<polygon fill="black" stroke="black" points="904.21,-133.3 914.21,-129.8 904.21,-126.3 904.21,-133.3"/>
</g>
<!-- MiniGameComponent -->
<g id="node11" class="node">
<title>MiniGameComponent</title>
<polygon fill="#ffffb3" stroke="black" points="451.98,-84.8 310.02,-84.8 310.02,-48.8 451.98,-48.8 451.98,-84.8"/>
<text text-anchor="middle" x="381" y="-62.6" font-family="Times,serif" font-size="14.00">MiniGameComponent</text>
</g>
<!-- MiniGameComponent&#45;&gt;AppModule -->
<g id="edge12" class="edge">
<title>MiniGameComponent&#45;&gt;AppModule</title>
<path fill="none" stroke="black" d="M381,-85.11C381,-104.95 381,-133.8 381,-133.8 381,-133.8 904.18,-133.8 904.18,-133.8"/>
<polygon fill="black" stroke="black" points="904.18,-137.3 914.18,-133.8 904.18,-130.3 904.18,-137.3"/>
</g>
<!-- NavbarComponent -->
<g id="node12" class="node">
<title>NavbarComponent</title>
<polygon fill="#ffffb3" stroke="black" points="292.03,-84.8 169.97,-84.8 169.97,-48.8 292.03,-48.8 292.03,-84.8"/>
<text text-anchor="middle" x="231" y="-62.6" font-family="Times,serif" font-size="14.00">NavbarComponent</text>
</g>
<!-- NavbarComponent&#45;&gt;AppModule -->
<g id="edge13" class="edge">
<title>NavbarComponent&#45;&gt;AppModule</title>
<path fill="none" stroke="black" d="M231,-85.08C231,-106.12 231,-137.8 231,-137.8 231,-137.8 904.15,-137.8 904.15,-137.8"/>
<polygon fill="black" stroke="black" points="904.15,-141.3 914.15,-137.8 904.15,-134.3 904.15,-141.3"/>
</g>
<!-- RegisterComponent -->
<g id="node13" class="node">
<title>RegisterComponent</title>
<polygon fill="#ffffb3" stroke="black" points="151.98,-84.8 24.02,-84.8 24.02,-48.8 151.98,-48.8 151.98,-84.8"/>
<text text-anchor="middle" x="88" y="-62.6" font-family="Times,serif" font-size="14.00">RegisterComponent</text>
</g>
<!-- RegisterComponent&#45;&gt;AppModule -->
<g id="edge14" class="edge">
<title>RegisterComponent&#45;&gt;AppModule</title>
<path fill="none" stroke="black" d="M109.33,-84.96C109.33,-107.15 109.33,-141.8 109.33,-141.8 109.33,-141.8 904.3,-141.8 904.3,-141.8"/>
<polygon fill="black" stroke="black" points="904.3,-145.3 914.3,-141.8 904.3,-138.3 904.3,-145.3"/>
</g>
<!-- RegisterComponent&#45;&gt;AppModule -->
<g id="edge15" class="edge">
<title>RegisterComponent&#45;&gt;AppModule</title>
<path fill="none" stroke="black" d="M66.67,-85.12C66.67,-108.46 66.67,-145.8 66.67,-145.8 66.67,-145.8 904.3,-145.8 904.3,-145.8"/>
<polygon fill="black" stroke="black" points="904.3,-149.3 914.3,-145.8 904.3,-142.3 904.3,-149.3"/>
</g>
<!-- AppComponent  -->
<g id="node16" class="node">
<title>AppComponent </title>
<polygon fill="#80b1d3" stroke="black" points="1010.44,-214.8 901.56,-214.8 901.56,-178.8 1010.44,-178.8 1010.44,-214.8"/>
<text text-anchor="middle" x="956" y="-192.6" font-family="Times,serif" font-size="14.00">AppComponent </text>
</g>
<!-- AppModule&#45;&gt;AppComponent  -->
<g id="edge17" class="edge">
<title>AppModule&#45;&gt;AppComponent </title>
<path fill="none" stroke="black" stroke-dasharray="1,5" d="M956,-149.91C956,-149.91 956,-168.79 956,-168.79"/>
<polygon fill="black" stroke="black" points="952.5,-168.79 956,-178.79 959.5,-168.79 952.5,-168.79"/>
</g>
<!-- AppRoutingModule -->
<g id="node15" class="node">
<title>AppRoutingModule</title>
<polygon fill="#8dd3c7" stroke="black" points="2010.27,-84.8 2007.27,-88.8 1986.27,-88.8 1983.27,-84.8 1881.73,-84.8 1881.73,-48.8 2010.27,-48.8 2010.27,-84.8"/>
<text text-anchor="middle" x="1946" y="-62.6" font-family="Times,serif" font-size="14.00">AppRoutingModule</text>
</g>
<!-- AppRoutingModule&#45;&gt;AppModule -->
<g id="edge16" class="edge">
<title>AppRoutingModule&#45;&gt;AppModule</title>
<path fill="none" stroke="black" d="M1946,-84.96C1946,-107.15 1946,-141.8 1946,-141.8 1946,-141.8 1007.91,-141.8 1007.91,-141.8"/>
<polygon fill="black" stroke="black" points="1007.91,-138.3 997.91,-141.8 1007.91,-145.3 1007.91,-138.3"/>
</g>
<!-- UserService -->
<g id="node17" class="node">
<title>UserService</title>
<ellipse fill="#fdb462" stroke="black" cx="2092" cy="-66.8" rx="58.44" ry="18"/>
<text text-anchor="middle" x="2092" y="-62.6" font-family="Times,serif" font-size="14.00">UserService</text>
</g>
<!-- UserService&#45;&gt;AppModule -->
<g id="edge18" class="edge">
<title>UserService&#45;&gt;AppModule</title>
<path fill="none" stroke="black" d="M2092,-85.12C2092,-108.46 2092,-145.8 2092,-145.8 2092,-145.8 1007.78,-145.8 1007.78,-145.8"/>
<polygon fill="black" stroke="black" points="1007.78,-142.3 997.78,-145.8 1007.78,-149.3 1007.78,-142.3"/>
</g>
</g>
</svg>
