<?xml version="1.0" encoding="UTF-8" standalone="no"?>
<!DOCTYPE svg PUBLIC "-//W3C//DTD SVG 1.1//EN"
 "http://www.w3.org/Graphics/SVG/1.1/DTD/svg11.dtd">
<!-- Generated by graphviz version 2.47.3 (20210619.1520)
 -->
<!-- Title: dependencies Pages: 1 -->
<svg width="2182pt" height="247pt"
 viewBox="0.00 0.00 2182.00 246.80" xmlns="http://www.w3.org/2000/svg" xmlns:xlink="http://www.w3.org/1999/xlink">
<g id="graph0" class="graph" transform="scale(1 1) rotate(0) translate(4 242.8)">
<title>dependencies</title>
<polygon fill="white" stroke="transparent" points="-4,4 -4,-242.8 2178,-242.8 2178,4 -4,4"/>
<text text-anchor="middle" x="1087" y="-8.2" font-family="sans-serif" font-size="14.00">dependencies</text>
<g id="clust1" class="cluster">
<title>cluster_AppModule</title>
<polygon fill="none" stroke="black" stroke-dasharray="1,5" points="8,-32.8 8,-230.8 2166,-230.8 2166,-32.8 8,-32.8"/>
</g>
<g id="clust2" class="cluster">
<title>cluster_AppModule_declarations</title>
<polygon fill="none" stroke="black" points="308,-40.8 308,-92.8 2158,-92.8 2158,-40.8 308,-40.8"/>
</g>
<g id="clust16" class="cluster">
<title>cluster_AppModule_imports</title>
<polygon fill="none" stroke="black" points="156,-40.8 156,-92.8 300,-92.8 300,-40.8 156,-40.8"/>
</g>
<g id="clust18" class="cluster">
<title>cluster_AppModule_bootstrap</title>
<polygon fill="none" stroke="black" points="1047,-170.8 1047,-222.8 1171,-222.8 1171,-170.8 1047,-170.8"/>
</g>
<g id="clust19" class="cluster">
<title>cluster_AppModule_providers</title>
<polygon fill="none" stroke="black" points="16,-40.8 16,-92.8 148,-92.8 148,-40.8 16,-40.8"/>
</g>
<!-- AppComponent -->
<g id="node1" class="node">
<title>AppComponent</title>
<polygon fill="#ffffb3" stroke="black" points="2149.94,-84.8 2044.06,-84.8 2044.06,-48.8 2149.94,-48.8 2149.94,-84.8"/>
<text text-anchor="middle" x="2097" y="-62.6" font-family="Times,serif" font-size="14.00">AppComponent</text>
</g>
<!-- AppModule -->
<g id="node14" class="node">
<title>AppModule</title>
<polygon fill="#8dd3c7" stroke="black" points="1150.66,-149.8 1147.66,-153.8 1126.66,-153.8 1123.66,-149.8 1067.34,-149.8 1067.34,-113.8 1150.66,-113.8 1150.66,-149.8"/>
<text text-anchor="middle" x="1109" y="-127.6" font-family="Times,serif" font-size="14.00">AppModule</text>
</g>
<!-- AppComponent&#45;&gt;AppModule -->
<g id="edge1" class="edge">
<title>AppComponent&#45;&gt;AppModule</title>
<path fill="none" stroke="black" d="M2097,-85.12C2097,-108.46 2097,-145.8 2097,-145.8 2097,-145.8 1160.82,-145.8 1160.82,-145.8"/>
<polygon fill="black" stroke="black" points="1160.82,-142.3 1150.82,-145.8 1160.82,-149.3 1160.82,-142.3"/>
</g>
<!-- CartComponent -->
<g id="node2" class="node">
<title>CartComponent</title>
<polygon fill="#ffffb3" stroke="black" points="2026.94,-84.8 1921.06,-84.8 1921.06,-48.8 2026.94,-48.8 2026.94,-84.8"/>
<text text-anchor="middle" x="1974" y="-62.6" font-family="Times,serif" font-size="14.00">CartComponent</text>
</g>
<!-- CartComponent&#45;&gt;AppModule -->
<g id="edge2" class="edge">
<title>CartComponent&#45;&gt;AppModule</title>
<path fill="none" stroke="black" d="M1974,-85.09C1974,-107.01 1974,-140.8 1974,-140.8 1974,-140.8 1160.72,-140.8 1160.72,-140.8"/>
<polygon fill="black" stroke="black" points="1160.72,-137.3 1150.72,-140.8 1160.72,-144.3 1160.72,-137.3"/>
</g>
<!-- CheckoutComponent -->
<g id="node3" class="node">
<title>CheckoutComponent</title>
<polygon fill="#ffffb3" stroke="black" points="1903.49,-84.8 1768.51,-84.8 1768.51,-48.8 1903.49,-48.8 1903.49,-84.8"/>
<text text-anchor="middle" x="1836" y="-62.6" font-family="Times,serif" font-size="14.00">CheckoutComponent</text>
</g>
<!-- CheckoutComponent&#45;&gt;AppModule -->
<g id="edge3" class="edge">
<title>CheckoutComponent&#45;&gt;AppModule</title>
<path fill="none" stroke="black" d="M1836,-84.83C1836,-105.57 1836,-136.8 1836,-136.8 1836,-136.8 1160.7,-136.8 1160.7,-136.8"/>
<polygon fill="black" stroke="black" points="1160.7,-133.3 1150.7,-136.8 1160.7,-140.3 1160.7,-133.3"/>
</g>
<!-- EditUserComponent -->
<g id="node4" class="node">
<title>EditUserComponent</title>
<polygon fill="#ffffb3" stroke="black" points="1750.59,-84.8 1619.41,-84.8 1619.41,-48.8 1750.59,-48.8 1750.59,-84.8"/>
<text text-anchor="middle" x="1685" y="-62.6" font-family="Times,serif" font-size="14.00">EditUserComponent</text>
</g>
<!-- EditUserComponent&#45;&gt;AppModule -->
<g id="edge4" class="edge">
<title>EditUserComponent&#45;&gt;AppModule</title>
<path fill="none" stroke="black" d="M1685,-84.91C1685,-104.14 1685,-131.8 1685,-131.8 1685,-131.8 1160.89,-131.8 1160.89,-131.8"/>
<polygon fill="black" stroke="black" points="1160.89,-128.3 1150.89,-131.8 1160.89,-135.3 1160.89,-128.3"/>
</g>
<!-- Footer2Component -->
<g id="node5" class="node">
<title>Footer2Component</title>
<polygon fill="#ffffb3" stroke="black" points="1601.38,-84.8 1476.62,-84.8 1476.62,-48.8 1601.38,-48.8 1601.38,-84.8"/>
<text text-anchor="middle" x="1539" y="-62.6" font-family="Times,serif" font-size="14.00">Footer2Component</text>
</g>
<!-- Footer2Component&#45;&gt;AppModule -->
<g id="edge5" class="edge">
<title>Footer2Component&#45;&gt;AppModule</title>
<path fill="none" stroke="black" d="M1539,-85.1C1539,-103.07 1539,-127.8 1539,-127.8 1539,-127.8 1161.01,-127.8 1161.01,-127.8"/>
<polygon fill="black" stroke="black" points="1161.01,-124.3 1151.01,-127.8 1161.01,-131.3 1161.01,-124.3"/>
</g>
<!-- Header3Component -->
<g id="node6" class="node">
<title>Header3Component</title>
<polygon fill="#ffffb3" stroke="black" points="1458.24,-84.8 1329.76,-84.8 1329.76,-48.8 1458.24,-48.8 1458.24,-84.8"/>
<text text-anchor="middle" x="1394" y="-62.6" font-family="Times,serif" font-size="14.00">Header3Component</text>
</g>
<!-- Header3Component&#45;&gt;AppModule -->
<g id="edge6" class="edge">
<title>Header3Component&#45;&gt;AppModule</title>
<path fill="none" stroke="black" d="M1394,-84.83C1394,-101.2 1394,-122.8 1394,-122.8 1394,-122.8 1160.75,-122.8 1160.75,-122.8"/>
<polygon fill="black" stroke="black" points="1160.75,-119.3 1150.75,-122.8 1160.75,-126.3 1160.75,-119.3"/>
</g>
<!-- LoadingComponent -->
<g id="node7" class="node">
<title>LoadingComponent</title>
<polygon fill="#ffffb3" stroke="black" points="1311.99,-84.8 1184.01,-84.8 1184.01,-48.8 1311.99,-48.8 1311.99,-84.8"/>
<text text-anchor="middle" x="1248" y="-62.6" font-family="Times,serif" font-size="14.00">LoadingComponent</text>
</g>
<!-- LoadingComponent&#45;&gt;AppModule -->
<g id="edge7" class="edge">
<title>LoadingComponent&#45;&gt;AppModule</title>
<path fill="none" stroke="black" d="M1248,-84.99C1248,-99.98 1248,-118.8 1248,-118.8 1248,-118.8 1160.7,-118.8 1160.7,-118.8"/>
<polygon fill="black" stroke="black" points="1160.7,-115.3 1150.7,-118.8 1160.7,-122.3 1160.7,-115.3"/>
</g>
<!-- LoginComponent -->
<g id="node8" class="node">
<title>LoginComponent</title>
<polygon fill="#ffffb3" stroke="black" points="1166.28,-84.8 1051.72,-84.8 1051.72,-48.8 1166.28,-48.8 1166.28,-84.8"/>
<text text-anchor="middle" x="1109" y="-62.6" font-family="Times,serif" font-size="14.00">LoginComponent</text>
</g>
<!-- LoginComponent&#45;&gt;AppModule -->
<g id="edge8" class="edge">
<title>LoginComponent&#45;&gt;AppModule</title>
<path fill="none" stroke="black" d="M1122.94,-84.91C1122.94,-84.91 1122.94,-103.79 1122.94,-103.79"/>
<polygon fill="black" stroke="black" points="1119.44,-103.79 1122.94,-113.79 1126.44,-103.79 1119.44,-103.79"/>
</g>
<!-- LoginComponent&#45;&gt;AppModule -->
<g id="edge9" class="edge">
<title>LoginComponent&#45;&gt;AppModule</title>
<path fill="none" stroke="black" d="M1095.06,-84.91C1095.06,-84.91 1095.06,-103.79 1095.06,-103.79"/>
<polygon fill="black" stroke="black" points="1091.56,-103.79 1095.06,-113.79 1098.56,-103.79 1091.56,-103.79"/>
</g>
<!-- MenuComponent -->
<g id="node9" class="node">
<title>MenuComponent</title>
<polygon fill="#ffffb3" stroke="black" points="1033.99,-84.8 920.01,-84.8 920.01,-48.8 1033.99,-48.8 1033.99,-84.8"/>
<text text-anchor="middle" x="977" y="-62.6" font-family="Times,serif" font-size="14.00">MenuComponent</text>
</g>
<!-- MenuComponent&#45;&gt;AppModule -->
<g id="edge10" class="edge">
<title>MenuComponent&#45;&gt;AppModule</title>
<path fill="none" stroke="black" d="M977,-84.92C977,-99.58 977,-117.8 977,-117.8 977,-117.8 1057.23,-117.8 1057.23,-117.8"/>
<polygon fill="black" stroke="black" points="1057.23,-121.3 1067.23,-117.8 1057.23,-114.3 1057.23,-121.3"/>
</g>
<!-- MenuItemComponent -->
<g id="node10" class="node">
<title>MenuItemComponent</title>
<polygon fill="#ffffb3" stroke="black" points="901.65,-84.8 762.35,-84.8 762.35,-48.8 901.65,-48.8 901.65,-84.8"/>
<text text-anchor="middle" x="832" y="-62.6" font-family="Times,serif" font-size="14.00">MenuItemComponent</text>
</g>
<!-- MenuItemComponent&#45;&gt;AppModule -->
<g id="edge11" class="edge">
<title>MenuItemComponent&#45;&gt;AppModule</title>
<path fill="none" stroke="black" d="M832,-84.81C832,-100.85 832,-121.8 832,-121.8 832,-121.8 1057.23,-121.8 1057.23,-121.8"/>
<polygon fill="black" stroke="black" points="1057.23,-125.3 1067.23,-121.8 1057.23,-118.3 1057.23,-125.3"/>
</g>
<!-- MiniGameComponent -->
<g id="node11" class="node">
<title>MiniGameComponent</title>
<polygon fill="#ffffb3" stroke="black" points="743.98,-84.8 602.02,-84.8 602.02,-48.8 743.98,-48.8 743.98,-84.8"/>
<text text-anchor="middle" x="673" y="-62.6" font-family="Times,serif" font-size="14.00">MiniGameComponent</text>
</g>
<!-- MiniGameComponent&#45;&gt;AppModule -->
<g id="edge12" class="edge">
<title>MiniGameComponent&#45;&gt;AppModule</title>
<path fill="none" stroke="black" d="M673,-84.82C673,-102.17 673,-125.8 673,-125.8 673,-125.8 1057.19,-125.8 1057.19,-125.8"/>
<polygon fill="black" stroke="black" points="1057.19,-129.3 1067.19,-125.8 1057.19,-122.3 1057.19,-129.3"/>
</g>
<!-- NavbarComponent -->
<g id="node12" class="node">
<title>NavbarComponent</title>
<polygon fill="#ffffb3" stroke="black" points="584.03,-84.8 461.97,-84.8 461.97,-48.8 584.03,-48.8 584.03,-84.8"/>
<text text-anchor="middle" x="523" y="-62.6" font-family="Times,serif" font-size="14.00">NavbarComponent</text>
</g>
<!-- NavbarComponent&#45;&gt;AppModule -->
<g id="edge13" class="edge">
<title>NavbarComponent&#45;&gt;AppModule</title>
<path fill="none" stroke="black" d="M523,-85.02C523,-103.63 523,-129.8 523,-129.8 523,-129.8 1057.33,-129.8 1057.33,-129.8"/>
<polygon fill="black" stroke="black" points="1057.33,-133.3 1067.33,-129.8 1057.33,-126.3 1057.33,-133.3"/>
</g>
<!-- RegisterComponent -->
<g id="node13" class="node">
<title>RegisterComponent</title>
<polygon fill="#ffffb3" stroke="black" points="443.98,-84.8 316.02,-84.8 316.02,-48.8 443.98,-48.8 443.98,-84.8"/>
<text text-anchor="middle" x="380" y="-62.6" font-family="Times,serif" font-size="14.00">RegisterComponent</text>
</g>
<!-- RegisterComponent&#45;&gt;AppModule -->
<g id="edge14" class="edge">
<title>RegisterComponent&#45;&gt;AppModule</title>
<path fill="none" stroke="black" d="M358.67,-85.08C358.67,-106.12 358.67,-137.8 358.67,-137.8 358.67,-137.8 1057.32,-137.8 1057.32,-137.8"/>
<polygon fill="black" stroke="black" points="1057.32,-141.3 1067.32,-137.8 1057.32,-134.3 1057.32,-141.3"/>
</g>
<!-- RegisterComponent&#45;&gt;AppModule -->
<g id="edge15" class="edge">
<title>RegisterComponent&#45;&gt;AppModule</title>
<path fill="none" stroke="black" d="M401.33,-85.11C401.33,-104.95 401.33,-133.8 401.33,-133.8 401.33,-133.8 1057.11,-133.8 1057.11,-133.8"/>
<polygon fill="black" stroke="black" points="1057.11,-137.3 1067.11,-133.8 1057.11,-130.3 1057.11,-137.3"/>
</g>
<!-- AppComponent  -->
<g id="node16" class="node">
<title>AppComponent </title>
<polygon fill="#80b1d3" stroke="black" points="1163.44,-214.8 1054.56,-214.8 1054.56,-178.8 1163.44,-178.8 1163.44,-214.8"/>
<text text-anchor="middle" x="1109" y="-192.6" font-family="Times,serif" font-size="14.00">AppComponent </text>
</g>
<!-- AppModule&#45;&gt;AppComponent  -->
<g id="edge17" class="edge">
<title>AppModule&#45;&gt;AppComponent </title>
<path fill="none" stroke="black" stroke-dasharray="1,5" d="M1109,-149.91C1109,-149.91 1109,-168.79 1109,-168.79"/>
<polygon fill="black" stroke="black" points="1105.5,-168.79 1109,-178.79 1112.5,-168.79 1105.5,-168.79"/>
</g>
<!-- AppRoutingModule -->
<g id="node15" class="node">
<title>AppRoutingModule</title>
<polygon fill="#8dd3c7" stroke="black" points="292.27,-84.8 289.27,-88.8 268.27,-88.8 265.27,-84.8 163.73,-84.8 163.73,-48.8 292.27,-48.8 292.27,-84.8"/>
<text text-anchor="middle" x="228" y="-62.6" font-family="Times,serif" font-size="14.00">AppRoutingModule</text>
</g>
<!-- AppRoutingModule&#45;&gt;AppModule -->
<g id="edge16" class="edge">
<title>AppRoutingModule&#45;&gt;AppModule</title>
<path fill="none" stroke="black" d="M228,-84.96C228,-107.15 228,-141.8 228,-141.8 228,-141.8 1057.1,-141.8 1057.1,-141.8"/>
<polygon fill="black" stroke="black" points="1057.1,-145.3 1067.1,-141.8 1057.1,-138.3 1057.1,-145.3"/>
</g>
<!-- UserService -->
<g id="node17" class="node">
<title>UserService</title>
<ellipse fill="#fdb462" stroke="black" cx="82" cy="-66.8" rx="58.44" ry="18"/>
<text text-anchor="middle" x="82" y="-62.6" font-family="Times,serif" font-size="14.00">UserService</text>
</g>
<!-- UserService&#45;&gt;AppModule -->
<g id="edge18" class="edge">
<title>UserService&#45;&gt;AppModule</title>
<path fill="none" stroke="black" d="M82,-85.12C82,-108.46 82,-145.8 82,-145.8 82,-145.8 1057.15,-145.8 1057.15,-145.8"/>
<polygon fill="black" stroke="black" points="1057.15,-149.3 1067.15,-145.8 1057.15,-142.3 1057.15,-149.3"/>
</g>
</g>
</svg>
